<svg xmlns="http://www.w3.org/2000/svg" xmlns:xlink="http://www.w3.org/1999/xlink" width="50" zoomAndPan="magnify" viewBox="0 0 37.5 37.499999" height="50" preserveAspectRatio="xMidYMid meet" version="1.0"><defs><g/><clipPath id="1741960ddd"><path d="M 0.738281 5.585938 L 25.171875 5.585938 L 25.171875 30.019531 L 0.738281 30.019531 Z M 0.738281 5.585938 " clip-rule="nonzero"/></clipPath></defs><g clip-path="url(#1741960ddd)"><path fill="#259922" d="M 10.550781 6.554688 C 12.050781 5.589844 14.105469 5.585938 15.601562 6.558594 C 17.035156 7.414062 17.945312 9.035156 17.96875 10.703125 C 19.160156 10.714844 20.355469 10.695312 21.546875 10.710938 C 22.191406 10.660156 22.796875 11.175781 22.832031 11.820312 C 23.640625 17.472656 24.449219 23.125 25.242188 28.78125 C 25.40625 29.503906 24.777344 30.253906 24.035156 30.203125 C 16.726562 30.214844 9.414062 30.210938 2.101562 30.203125 C 1.363281 30.253906 0.738281 29.507812 0.894531 28.789062 C 1.695312 23.136719 2.503906 17.484375 3.3125 11.832031 C 3.355469 11.195312 3.941406 10.664062 4.585938 10.710938 C 5.785156 10.691406 6.984375 10.714844 8.179688 10.707031 C 8.210938 9.039062 9.113281 7.414062 10.550781 6.554688 Z M 10.597656 10.699219 C 12.25 10.714844 13.902344 10.707031 15.554688 10.699219 C 15.488281 9.410156 14.40625 8.230469 13.074219 8.269531 C 11.746094 8.230469 10.664062 9.40625 10.597656 10.699219 Z M 10.597656 10.699219 " fill-opacity="1" fill-rule="nonzero"/></g><g fill="#ffffff" fill-opacity="1"><g transform="translate(5.29667, 27.060303)"><g><path d="M 8.109375 -5.265625 L 8.109375 -7.671875 L 14.34375 -7.671875 L 14.34375 -1.984375 C 13.738281 -1.398438 12.863281 -0.878906 11.71875 -0.421875 C 10.570312 0.0234375 9.40625 0.25 8.21875 0.25 C 6.726562 0.25 5.425781 -0.0625 4.3125 -0.6875 C 3.195312 -1.320312 2.359375 -2.222656 1.796875 -3.390625 C 1.234375 -4.554688 0.953125 -5.828125 0.953125 -7.203125 C 0.953125 -8.617188 1.234375 -9.882812 1.796875 -11 C 2.359375 -12.113281 3.171875 -12.984375 4.234375 -13.609375 C 5.296875 -14.242188 6.570312 -14.5625 8.0625 -14.5625 C 9.851562 -14.5625 11.242188 -14.1875 12.234375 -13.4375 C 13.234375 -12.695312 13.875 -11.671875 14.15625 -10.359375 L 11.28125 -9.828125 C 11.082031 -10.515625 10.703125 -11.0625 10.140625 -11.46875 C 9.585938 -11.875 8.894531 -12.078125 8.0625 -12.078125 C 6.8125 -12.078125 5.8125 -11.675781 5.0625 -10.875 C 4.3125 -10.070312 3.9375 -8.890625 3.9375 -7.328125 C 3.9375 -5.628906 4.3125 -4.351562 5.0625 -3.5 C 5.820312 -2.644531 6.8125 -2.21875 8.03125 -2.21875 C 8.632812 -2.21875 9.242188 -2.335938 9.859375 -2.578125 C 10.472656 -2.816406 10.992188 -3.101562 11.421875 -3.4375 L 11.421875 -5.265625 Z M 8.109375 -5.265625 "/></g></g></g><g fill="#000000" fill-opacity="1"><g transform="translate(24.35774, 28.115133)"><g><path d="M 0.703125 -5.734375 C 0.703125 -6.691406 0.820312 -7.523438 1.0625 -8.234375 C 1.300781 -8.941406 1.6875 -9.585938 2.21875 -10.171875 C 2.75 -10.753906 3.347656 -11.164062 4.015625 -11.40625 C 4.691406 -11.65625 5.457031 -11.78125 6.3125 -11.78125 C 8.019531 -11.78125 9.382812 -11.25 10.40625 -10.1875 C 11.425781 -9.132812 11.9375 -7.664062 11.9375 -5.78125 C 11.9375 -3.914062 11.425781 -2.453125 10.40625 -1.390625 C 9.394531 -0.328125 8.039062 0.203125 6.34375 0.203125 C 4.613281 0.203125 3.238281 -0.320312 2.21875 -1.375 C 1.207031 -2.4375 0.703125 -3.890625 0.703125 -5.734375 Z M 3.109375 -5.796875 C 3.109375 -4.484375 3.410156 -3.488281 4.015625 -2.8125 C 4.628906 -2.132812 5.398438 -1.796875 6.328125 -1.796875 C 7.265625 -1.796875 8.03125 -2.128906 8.625 -2.796875 C 9.21875 -3.472656 9.515625 -4.484375 9.515625 -5.828125 C 9.515625 -7.148438 9.222656 -8.140625 8.640625 -8.796875 C 8.054688 -9.453125 7.285156 -9.78125 6.328125 -9.78125 C 5.367188 -9.78125 4.59375 -9.445312 4 -8.78125 C 3.40625 -8.125 3.109375 -7.128906 3.109375 -5.796875 Z M 3.109375 -5.796875 "/></g></g></g></svg>